<?xml version="1.0" encoding="utf-8"?>
<!-- Generator: Adobe Illustrator 24.0.1, SVG Export Plug-In . SVG Version: 6.00 Build 0)  -->
<svg version="1.1" id="Camada_1" xmlns="http://www.w3.org/2000/svg" xmlns:xlink="http://www.w3.org/1999/xlink" x="0px" y="0px"
	 viewBox="0 0 500 100" style="enable-background:new 0 0 500 100;" xml:space="preserve">
<style type="text/css">
	.st0{fill:url(#SVGID_1_);}
</style>
<linearGradient id="SVGID_1_" gradientUnits="userSpaceOnUse" x1="493" y1="50.2772" x2="7.7079" y2="50.2772">
	<stop  offset="0" style="stop-color:#A2E558"/>
	<stop  offset="1" style="stop-color:#087808"/>
</linearGradient>
<path class="st0" d="M7.71,52.84c0-14.41,11.06-24.73,25.96-24.73c8.26,0,15.16,3.01,19.67,8.47l-7.1,6.56
	c-3.21-3.69-7.24-5.6-12.02-5.6c-8.95,0-15.3,6.28-15.3,15.3s6.35,15.3,15.3,15.3c4.78,0,8.81-1.91,12.02-5.67l7.1,6.56
	c-4.51,5.53-11.41,8.54-19.74,8.54C18.77,77.57,7.71,67.25,7.71,52.84z M82.84,39.45v9.84c-0.89-0.07-1.57-0.14-2.39-0.14
	c-5.87,0-9.77,3.21-9.77,10.25v17.35H60.03V40H70.2v4.85C72.8,41.3,77.17,39.45,82.84,39.45z M124.64,61.38h-27.8
	c1.02,4.58,4.92,7.38,10.52,7.38c3.89,0,6.69-1.16,9.22-3.55l5.67,6.15c-3.42,3.89-8.54,5.94-15.16,5.94
	c-12.7,0-20.97-7.99-20.97-18.92c0-11,8.4-18.92,19.6-18.92c10.79,0,19.13,7.24,19.13,19.06C124.85,59.33,124.71,60.49,124.64,61.38
	z M96.71,55.16h18.1c-0.75-4.64-4.23-7.65-9.02-7.65C100.94,47.51,97.46,50.45,96.71,55.16z M163.44,55.78v20.97h-9.97v-4.58
	c-1.98,3.35-5.81,5.12-11.2,5.12c-8.61,0-13.73-4.78-13.73-11.13c0-6.49,4.58-11,15.78-11h8.47c0-4.58-2.73-7.24-8.47-7.24
	c-3.89,0-7.92,1.3-10.59,3.42l-3.83-7.45c4.03-2.87,9.97-4.44,15.85-4.44C156.95,39.45,163.44,44.64,163.44,55.78z M152.78,65.13
	v-3.76h-7.31c-4.99,0-6.56,1.84-6.56,4.3c0,2.66,2.25,4.44,6.01,4.44C148.48,70.12,151.55,68.48,152.78,65.13z M196.77,74.97
	c-2.19,1.57-5.4,2.32-8.68,2.32c-8.68,0-13.73-4.44-13.73-13.18v-15.1h-5.67v-8.2h5.67v-8.95h10.66v8.95h9.15v8.2h-9.15v14.96
	c0,3.14,1.71,4.85,4.58,4.85c1.57,0,3.14-0.48,4.3-1.37L196.77,74.97z M201.48,28.93c0-3.35,2.66-5.94,6.63-5.94
	c3.96,0,6.63,2.46,6.63,5.74c0,3.55-2.66,6.15-6.63,6.15C204.15,34.87,201.48,32.28,201.48,28.93z M202.78,40h10.66v36.75h-10.66V40
	z M259.82,40l-15.51,36.75h-11L217.88,40h11l10.18,25l10.52-25H259.82z M298.95,61.38h-27.8c1.02,4.58,4.92,7.38,10.52,7.38
	c3.89,0,6.69-1.16,9.22-3.55l5.67,6.15c-3.42,3.89-8.54,5.94-15.16,5.94c-12.7,0-20.97-7.99-20.97-18.92c0-11,8.4-18.92,19.6-18.92
	c10.79,0,19.13,7.24,19.13,19.06C299.16,59.33,299.02,60.49,298.95,61.38z M271.02,55.16h18.1c-0.75-4.64-4.23-7.65-9.02-7.65
	C275.25,47.51,271.77,50.45,271.02,55.16z M326.34,28.93h11.06v38.8h23.98v9.02h-35.04V28.93z M399.77,55.78v20.97h-9.97v-4.58
	c-1.98,3.35-5.81,5.12-11.2,5.12c-8.61,0-13.73-4.78-13.73-11.13c0-6.49,4.58-11,15.78-11h8.47c0-4.58-2.73-7.24-8.47-7.24
	c-3.89,0-7.92,1.3-10.59,3.42l-3.83-7.45c4.03-2.87,9.97-4.44,15.85-4.44C393.28,39.45,399.77,44.64,399.77,55.78z M389.11,65.13
	v-3.76h-7.31c-4.99,0-6.56,1.84-6.56,4.3c0,2.66,2.25,4.44,6.01,4.44C384.81,70.12,387.88,68.48,389.11,65.13z M446.96,55.71v21.04
	h-10.66v-19.4c0-5.94-2.73-8.67-7.45-8.67c-5.12,0-8.81,3.14-8.81,9.9v18.17h-10.66V40h10.18v4.3c2.87-3.14,7.17-4.85,12.16-4.85
	C440.41,39.45,446.96,44.51,446.96,55.71z M492.79,61.38h-27.8c1.02,4.58,4.92,7.38,10.52,7.38c3.89,0,6.69-1.16,9.22-3.55
	l5.67,6.15c-3.41,3.89-8.54,5.94-15.16,5.94c-12.71,0-20.97-7.99-20.97-18.92c0-11,8.4-18.92,19.6-18.92
	c10.79,0,19.13,7.24,19.13,19.06C493,59.33,492.86,60.49,492.79,61.38z M464.86,55.16h18.1c-0.75-4.64-4.23-7.65-9.02-7.65
	C469.09,47.51,465.61,50.45,464.86,55.16z"/>
</svg>
